<?xml version="1.0" encoding="UTF-8"?><svg xmlns="http://www.w3.org/2000/svg" xmlns:xlink="http://www.w3.org/1999/xlink" contentScriptType="text/ecmascript" width="375" zoomAndPan="magnify" contentStyleType="text/css" viewBox="0 0 375 374.999991" height="374.999991" preserveAspectRatio="xMidYMid meet" version="1.0"><path fill="rgb(93.728638%, 26.669312%, 26.669312%)" d="M 187.371094 1.261719 C 184.308594 1.265625 181.253906 1.34375 178.195312 1.5 C 175.140625 1.65625 172.089844 1.886719 169.042969 2.1875 C 166 2.492188 162.964844 2.871094 159.9375 3.328125 C 156.910156 3.78125 153.898438 4.308594 150.898438 4.910156 C 147.898438 5.511719 144.914062 6.183594 141.945312 6.933594 C 138.976562 7.679688 136.03125 8.5 133.105469 9.394531 C 130.175781 10.285156 127.273438 11.25 124.394531 12.285156 C 121.511719 13.320312 118.660156 14.425781 115.835938 15.601562 C 113.011719 16.777344 110.214844 18.019531 107.449219 19.332031 C 104.6875 20.644531 101.957031 22.023438 99.257812 23.46875 C 96.5625 24.917969 93.902344 26.429688 91.277344 28.003906 C 88.65625 29.582031 86.074219 31.222656 83.53125 32.925781 C 80.988281 34.628906 78.492188 36.394531 76.035156 38.21875 C 73.582031 40.046875 71.171875 41.933594 68.808594 43.875 C 66.445312 45.820312 64.132812 47.820312 61.867188 49.878906 C 59.601562 51.9375 57.390625 54.050781 55.226562 56.21875 C 53.066406 58.382812 50.960938 60.601562 48.90625 62.871094 C 46.855469 65.140625 44.859375 67.460938 42.921875 69.828125 C 40.984375 72.195312 39.105469 74.609375 37.285156 77.070312 C 35.464844 79.53125 33.707031 82.035156 32.007812 84.582031 C 30.3125 87.128906 28.679688 89.714844 27.109375 92.339844 C 25.539062 94.96875 24.035156 97.632812 22.59375 100.332031 C 21.15625 103.03125 19.785156 105.765625 18.476562 108.535156 C 17.171875 111.304688 15.9375 114.101562 14.769531 116.929688 C 13.601562 119.757812 12.503906 122.613281 11.476562 125.496094 C 10.449219 128.378906 9.492188 131.285156 8.605469 134.214844 C 7.722656 137.144531 6.910156 140.09375 6.167969 143.0625 C 5.429688 146.03125 4.761719 149.015625 4.167969 152.019531 C 3.574219 155.019531 3.054688 158.035156 2.609375 161.0625 C 2.164062 164.089844 1.792969 167.128906 1.496094 170.171875 C 1.199219 173.21875 0.976562 176.269531 0.828125 179.328125 C 0.683594 182.382812 0.609375 185.441406 0.613281 188.5 C 0.617188 191.5625 0.695312 194.621094 0.847656 197.675781 C 1.003906 200.734375 1.230469 203.785156 1.535156 206.828125 C 1.835938 209.875 2.214844 212.910156 2.664062 215.9375 C 3.117188 218.964844 3.644531 221.976562 4.242188 224.976562 C 4.84375 227.976562 5.515625 230.960938 6.261719 233.929688 C 7.007812 236.898438 7.828125 239.84375 8.71875 242.773438 C 9.609375 245.699219 10.574219 248.605469 11.605469 251.484375 C 12.640625 254.363281 13.742188 257.21875 14.917969 260.042969 C 16.089844 262.871094 17.332031 265.667969 18.644531 268.429688 C 19.953125 271.195312 21.332031 273.929688 22.777344 276.625 C 24.222656 279.324219 25.734375 281.984375 27.308594 284.605469 C 28.882812 287.230469 30.523438 289.8125 32.226562 292.355469 C 33.925781 294.898438 35.691406 297.398438 37.515625 299.855469 C 39.339844 302.3125 41.226562 304.722656 43.167969 307.085938 C 45.113281 309.449219 47.113281 311.765625 49.167969 314.03125 C 51.226562 316.296875 53.335938 318.511719 55.503906 320.671875 C 57.667969 322.835938 59.886719 324.941406 62.152344 326.996094 C 64.421875 329.050781 66.742188 331.046875 69.109375 332.984375 C 71.476562 334.925781 73.886719 336.804688 76.347656 338.628906 C 78.804688 340.449219 81.308594 342.207031 83.855469 343.90625 C 86.398438 345.605469 88.984375 347.238281 91.613281 348.8125 C 94.238281 350.382812 96.902344 351.886719 99.601562 353.328125 C 102.300781 354.769531 105.035156 356.144531 107.800781 357.449219 C 110.566406 358.757812 113.367188 359.996094 116.195312 361.164062 C 119.023438 362.332031 121.875 363.433594 124.757812 364.460938 C 127.640625 365.488281 130.546875 366.449219 133.476562 367.335938 C 136.402344 368.222656 139.351562 369.035156 142.320312 369.777344 C 145.289062 370.519531 148.277344 371.1875 151.277344 371.78125 C 154.277344 372.378906 157.292969 372.898438 160.320312 373.347656 C 163.347656 373.792969 166.382812 374.167969 169.429688 374.464844 C 172.476562 374.761719 175.527344 374.988281 178.582031 375.136719 C 181.640625 375.285156 184.699219 375.355469 187.757812 375.355469 C 190.820312 375.355469 193.878906 375.277344 196.933594 375.125 C 199.988281 374.972656 203.039062 374.746094 206.085938 374.445312 C 209.132812 374.144531 212.167969 373.769531 215.195312 373.316406 C 218.222656 372.867188 221.234375 372.34375 224.234375 371.746094 C 227.238281 371.144531 230.222656 370.476562 233.191406 369.730469 C 236.15625 368.984375 239.105469 368.167969 242.035156 367.277344 C 244.960938 366.390625 247.867188 365.429688 250.746094 364.394531 C 253.628906 363.363281 256.480469 362.261719 259.308594 361.089844 C 262.136719 359.917969 264.933594 358.675781 267.699219 357.367188 C 270.464844 356.058594 273.195312 354.679688 275.894531 353.238281 C 278.59375 351.792969 281.253906 350.285156 283.878906 348.710938 C 286.503906 347.136719 289.085938 345.5 291.628906 343.796875 C 294.175781 342.097656 296.675781 340.335938 299.132812 338.511719 C 301.589844 336.6875 304 334.804688 306.367188 332.863281 C 308.730469 330.921875 311.046875 328.921875 313.3125 326.867188 C 315.578125 324.8125 317.796875 322.699219 319.957031 320.535156 C 322.121094 318.371094 324.230469 316.15625 326.285156 313.886719 C 328.339844 311.621094 330.335938 309.304688 332.277344 306.9375 C 334.21875 304.570312 336.101562 302.160156 337.921875 299.699219 C 339.746094 297.242188 341.507812 294.742188 343.207031 292.195312 C 344.90625 289.652344 346.542969 287.066406 348.113281 284.441406 C 349.6875 281.816406 351.195312 279.152344 352.636719 276.453125 C 354.078125 273.753906 355.453125 271.023438 356.761719 268.257812 C 358.070312 265.488281 359.308594 262.691406 360.480469 259.867188 C 361.652344 257.039062 362.75 254.183594 363.78125 251.300781 C 364.8125 248.421875 365.773438 245.515625 366.660156 242.585938 C 367.546875 239.660156 368.363281 236.710938 369.105469 233.742188 C 369.851562 230.773438 370.519531 227.789062 371.117188 224.789062 C 371.714844 221.785156 372.238281 218.773438 372.6875 215.746094 C 373.132812 212.71875 373.507812 209.679688 373.808594 206.636719 C 374.109375 203.589844 374.332031 200.539062 374.484375 197.484375 C 374.632812 194.425781 374.710938 191.367188 374.710938 188.308594 C 374.703125 185.246094 374.621094 182.183594 374.464844 179.125 C 374.3125 176.066406 374.078125 173.011719 373.773438 169.964844 C 373.46875 166.914062 373.089844 163.875 372.632812 160.847656 C 372.179688 157.816406 371.652344 154.800781 371.046875 151.796875 C 370.445312 148.792969 369.769531 145.808594 369.023438 142.835938 C 368.273438 139.867188 367.453125 136.917969 366.558594 133.988281 C 365.664062 131.058594 364.699219 128.152344 363.664062 125.269531 C 362.628906 122.386719 361.523438 119.53125 360.347656 116.703125 C 359.171875 113.871094 357.925781 111.074219 356.613281 108.308594 C 355.300781 105.539062 353.921875 102.808594 352.472656 100.105469 C 351.027344 97.40625 349.515625 94.746094 347.9375 92.121094 C 346.359375 89.492188 344.71875 86.910156 343.011719 84.363281 C 341.308594 81.820312 339.542969 79.316406 337.714844 76.859375 C 335.890625 74.398438 334.003906 71.988281 332.058594 69.621094 C 330.113281 67.257812 328.113281 64.9375 326.050781 62.671875 C 323.992188 60.402344 321.878906 58.1875 319.714844 56.023438 C 317.546875 53.859375 315.328125 51.75 313.054688 49.695312 C 310.785156 47.640625 308.464844 45.640625 306.097656 43.699219 C 303.726562 41.757812 301.3125 39.878906 298.851562 38.054688 C 296.390625 36.230469 293.886719 34.46875 291.339844 32.769531 C 288.792969 31.070312 286.203125 29.433594 283.578125 27.859375 C 280.949219 26.285156 278.285156 24.777344 275.582031 23.335938 C 272.882812 21.894531 270.148438 20.519531 267.378906 19.210938 C 264.609375 17.902344 261.808594 16.664062 258.980469 15.492188 C 256.148438 14.320312 253.292969 13.21875 250.410156 12.1875 C 247.527344 11.160156 244.621094 10.199219 241.6875 9.3125 C 238.757812 8.421875 235.808594 7.605469 232.835938 6.863281 C 229.867188 6.121094 226.878906 5.449219 223.875 4.851562 C 220.871094 4.257812 217.855469 3.734375 214.824219 3.285156 C 211.796875 2.835938 208.757812 2.460938 205.710938 2.160156 C 202.664062 1.859375 199.609375 1.636719 196.550781 1.484375 C 193.492188 1.335938 190.433594 1.261719 187.371094 1.261719 Z M 187.371094 16.828125 C 190.179688 16.824219 192.984375 16.894531 195.792969 17.027344 C 198.597656 17.164062 201.398438 17.371094 204.191406 17.644531 C 206.988281 17.917969 209.773438 18.261719 212.550781 18.671875 C 215.332031 19.082031 218.097656 19.558594 220.851562 20.105469 C 223.605469 20.652344 226.347656 21.265625 229.070312 21.949219 C 231.796875 22.628906 234.503906 23.375 237.191406 24.1875 C 239.878906 25.003906 242.546875 25.882812 245.191406 26.824219 C 247.835938 27.769531 250.457031 28.78125 253.050781 29.851562 C 255.644531 30.925781 258.214844 32.0625 260.753906 33.261719 C 263.292969 34.460938 265.800781 35.71875 268.28125 37.042969 C 270.757812 38.363281 273.203125 39.746094 275.613281 41.1875 C 278.019531 42.632812 280.394531 44.132812 282.730469 45.691406 C 285.066406 47.25 287.363281 48.863281 289.621094 50.535156 C 291.878906 52.207031 294.09375 53.929688 296.265625 55.710938 C 298.4375 57.492188 300.566406 59.324219 302.648438 61.207031 C 304.730469 63.09375 306.765625 65.027344 308.753906 67.011719 C 310.742188 68.996094 312.679688 71.027344 314.566406 73.105469 C 316.453125 75.1875 318.289062 77.308594 320.074219 79.480469 C 321.855469 81.648438 323.585938 83.859375 325.261719 86.113281 C 326.9375 88.371094 328.554688 90.664062 330.117188 92.996094 C 331.679688 95.332031 333.183594 97.703125 334.632812 100.109375 C 336.078125 102.515625 337.464844 104.957031 338.789062 107.433594 C 340.117188 109.910156 341.382812 112.414062 342.585938 114.953125 C 343.789062 117.492188 344.929688 120.058594 346.007812 122.652344 C 347.082031 125.242188 348.097656 127.863281 349.046875 130.507812 C 349.996094 133.148438 350.878906 135.8125 351.695312 138.5 C 352.515625 141.1875 353.265625 143.894531 353.953125 146.617188 C 354.636719 149.339844 355.253906 152.078125 355.804688 154.832031 C 356.359375 157.585938 356.839844 160.351562 357.257812 163.128906 C 357.671875 165.90625 358.019531 168.695312 358.296875 171.488281 C 358.574219 174.28125 358.785156 177.082031 358.925781 179.886719 C 359.066406 182.691406 359.140625 185.5 359.144531 188.308594 C 359.113281 200.664062 357.710938 212.863281 354.941406 224.902344 L 276.902344 146.703125 L 183.621094 240.113281 L 153.460938 209.953125 L 60.273438 303.152344 C 57.511719 300.097656 54.859375 296.949219 52.320312 293.703125 C 49.785156 290.460938 47.367188 287.128906 45.070312 283.707031 C 42.773438 280.289062 40.601562 276.789062 38.558594 273.214844 C 36.511719 269.640625 34.597656 265.996094 32.816406 262.28125 C 31.035156 258.566406 29.390625 254.792969 27.878906 250.960938 C 26.371094 247.128906 25 243.246094 23.769531 239.316406 C 22.539062 235.382812 21.453125 231.414062 20.511719 227.402344 C 19.566406 223.394531 18.769531 219.355469 18.117188 215.289062 C 17.464844 211.222656 16.960938 207.136719 16.601562 203.03125 C 16.246094 198.929688 16.035156 194.816406 15.976562 190.699219 C 15.914062 186.578125 16 182.464844 16.238281 178.351562 C 16.472656 174.238281 16.855469 170.140625 17.390625 166.054688 C 17.921875 161.972656 18.597656 157.910156 19.421875 153.875 C 20.246094 149.839844 21.214844 145.839844 22.328125 141.871094 C 23.441406 137.90625 24.695312 133.984375 26.089844 130.109375 C 27.488281 126.234375 29.019531 122.414062 30.691406 118.648438 C 32.363281 114.882812 34.167969 111.183594 36.105469 107.550781 C 38.042969 103.914062 40.109375 100.355469 42.304688 96.867188 C 44.5 93.382812 46.816406 89.980469 49.257812 86.664062 C 51.699219 83.34375 54.253906 80.117188 56.925781 76.984375 C 59.601562 73.847656 62.382812 70.816406 65.273438 67.882812 C 68.164062 64.949219 71.160156 62.121094 74.253906 59.40625 C 77.351562 56.6875 80.539062 54.085938 83.824219 51.597656 C 87.105469 49.109375 90.476562 46.742188 93.929688 44.5 C 97.382812 42.253906 100.914062 40.136719 104.519531 38.148438 C 108.125 36.15625 111.800781 34.300781 115.539062 32.574219 C 119.28125 30.847656 123.078125 29.261719 126.933594 27.808594 C 130.789062 26.359375 134.691406 25.050781 138.640625 23.878906 C 142.589844 22.710938 146.578125 21.683594 150.601562 20.800781 C 154.625 19.917969 158.675781 19.183594 162.75 18.59375 C 166.828125 18.003906 170.921875 17.5625 175.027344 17.265625 C 179.136719 16.972656 183.25 16.824219 187.371094 16.828125 Z M 187.371094 16.828125 " fill-opacity="1" fill-rule="nonzero"/><path fill="rgb(93.728638%, 26.669312%, 26.669312%)" d="M 147.722656 171.367188 C 149.277344 171.363281 150.828125 171.28125 152.378906 171.125 C 153.925781 170.964844 155.464844 170.734375 156.988281 170.425781 C 158.515625 170.117188 160.023438 169.734375 161.511719 169.277344 C 163 168.820312 164.460938 168.292969 165.898438 167.691406 C 167.332031 167.09375 168.734375 166.421875 170.105469 165.6875 C 171.476562 164.949219 172.808594 164.144531 174.101562 163.277344 C 175.390625 162.40625 176.636719 161.476562 177.839844 160.488281 C 179.039062 159.496094 180.1875 158.449219 181.285156 157.347656 C 182.382812 156.242188 183.425781 155.089844 184.410156 153.882812 C 185.394531 152.675781 186.316406 151.425781 187.175781 150.128906 C 188.039062 148.832031 188.835938 147.496094 189.566406 146.121094 C 190.296875 144.75 190.957031 143.339844 191.550781 141.902344 C 192.140625 140.460938 192.664062 138.996094 193.109375 137.507812 C 193.558594 136.015625 193.933594 134.507812 194.234375 132.980469 C 194.535156 131.453125 194.761719 129.914062 194.910156 128.367188 C 195.058594 126.816406 195.132812 125.265625 195.128906 123.707031 C 195.125 122.152344 195.046875 120.597656 194.890625 119.050781 C 194.734375 117.5 194.503906 115.964844 194.199219 114.4375 C 193.894531 112.910156 193.511719 111.402344 193.058594 109.914062 C 192.605469 108.425781 192.078125 106.964844 191.480469 105.527344 C 190.882812 104.089844 190.214844 102.683594 189.480469 101.3125 C 188.742188 99.941406 187.941406 98.609375 187.074219 97.316406 C 186.210938 96.023438 185.28125 94.777344 184.292969 93.574219 C 183.304688 92.371094 182.257812 91.222656 181.15625 90.121094 C 180.054688 89.023438 178.902344 87.980469 177.695312 86.992188 C 176.492188 86.007812 175.242188 85.082031 173.949219 84.21875 C 172.652344 83.355469 171.320312 82.558594 169.945312 81.824219 C 168.570312 81.09375 167.167969 80.429688 165.726562 79.835938 C 164.289062 79.242188 162.824219 78.71875 161.335938 78.265625 C 159.84375 77.816406 158.335938 77.441406 156.808594 77.136719 C 155.285156 76.835938 153.746094 76.605469 152.195312 76.457031 C 150.648438 76.304688 149.09375 76.226562 147.539062 76.230469 C 145.980469 76.230469 144.429688 76.304688 142.878906 76.460938 C 141.332031 76.613281 139.792969 76.839844 138.265625 77.144531 C 136.738281 77.449219 135.230469 77.828125 133.742188 78.28125 C 132.253906 78.730469 130.789062 79.253906 129.351562 79.851562 C 127.914062 80.445312 126.507812 81.113281 125.136719 81.84375 C 123.761719 82.578125 122.429688 83.378906 121.136719 84.242188 C 119.839844 85.109375 118.589844 86.035156 117.386719 87.019531 C 116.183594 88.007812 115.03125 89.050781 113.933594 90.152344 C 112.832031 91.253906 111.785156 92.402344 110.796875 93.605469 C 109.8125 94.808594 108.882812 96.058594 108.019531 97.351562 C 107.152344 98.644531 106.351562 99.976562 105.617188 101.351562 C 104.882812 102.722656 104.21875 104.128906 103.621094 105.566406 C 103.027344 107.003906 102.5 108.464844 102.046875 109.957031 C 101.59375 111.445312 101.214844 112.953125 100.910156 114.480469 C 100.605469 116.003906 100.375 117.542969 100.222656 119.09375 C 100.070312 120.640625 99.992188 122.195312 99.988281 123.75 C 99.988281 125.3125 100.0625 126.871094 100.214844 128.425781 C 100.363281 129.980469 100.59375 131.527344 100.894531 133.058594 C 101.199219 134.589844 101.578125 136.105469 102.03125 137.601562 C 102.484375 139.097656 103.007812 140.566406 103.605469 142.007812 C 104.207031 143.453125 104.871094 144.863281 105.609375 146.242188 C 106.347656 147.621094 107.148438 148.957031 108.019531 150.257812 C 108.886719 151.554688 109.816406 152.808594 110.808594 154.015625 C 111.800781 155.222656 112.851562 156.378906 113.957031 157.480469 C 115.0625 158.585938 116.222656 159.628906 117.429688 160.621094 C 118.640625 161.609375 119.894531 162.535156 121.195312 163.402344 C 122.496094 164.269531 123.835938 165.066406 125.214844 165.800781 C 126.597656 166.535156 128.007812 167.199219 129.453125 167.792969 C 130.898438 168.386719 132.367188 168.910156 133.867188 169.359375 C 135.363281 169.808594 136.878906 170.183594 138.410156 170.484375 C 139.945312 170.785156 141.488281 171.007812 143.042969 171.15625 C 144.597656 171.304688 146.160156 171.375 147.722656 171.367188 Z M 147.722656 171.367188 " fill-opacity="1" fill-rule="nonzero"/></svg>